# xmcd
# 
# Track frame offsets:
#     150
#     36355
#     64064
#     90082
#     118595
#     145580
#     171641
# 
# Disc length: 2810
# 
# Revision: 0
# Processed by: cddbd v1.5.2PL0 Copyright (c) Steve Scherf et al.
# Submitted via: fre:ac v1.0.31
# 
DISCID=590af807
DTITLE=Sonny Rollins - The Very Best Of Sonny Rollins
DYEAR=2005
DGENRE=Jazz
TTITLE0=Decision
TTITLE1=Poor Butterfly
TTITLE2=Why Don't I
TTITLE3=How Are Things in Glocca Morra?
TTITLE4=Asiatic Raes
TTITLE5=Tune Up
TTITLE6=Sonnymoon for Two
EXTD=YEAR: 2005
EXTT0=
EXTT1=
EXTT2=
EXTT3=
EXTT4=
EXTT5=
EXTT6=
PLAYORDER=
